<?xml version="1.0" encoding="utf-8"?>
<!-- Generator: Adobe Illustrator 18.0.0, SVG Export Plug-In . SVG Version: 6.00 Build 0)  -->
<!DOCTYPE svg PUBLIC "-//W3C//DTD SVG 1.1//EN" "http://www.w3.org/Graphics/SVG/1.1/DTD/svg11.dtd">
<svg version="1.1" id="圖層_1" xmlns="http://www.w3.org/2000/svg" xmlns:xlink="http://www.w3.org/1999/xlink" x="0px" y="0px"
	 viewBox="0 0 95 43" enable-background="new 0 0 95 43" xml:space="preserve">
<rect x="1.4" y="6.6" width="34" height="2.3"/>
<path d="M7.6,41.9L7.6,41.9c-3.2,0-5.9-0.1-5.8-3.6l0-22.4c0-3.5,2.6-3.1,5.9-3.1h0c3.2,0,5.9-0.4,5.9,3.1l0,22.4
	C13.5,41.8,10.8,41.9,7.6,41.9z"/>
<rect x="16.1" y="20.3" width="18.6" height="2.3"/>
<path fill="#FFFFFF" d="M7.6,39.3L7.6,39.3c-2,0-3.6-0.1-3.6-3l0-18.5c0-2.9,1.6-2.5,3.6-2.5h0c2,0,3.6-0.3,3.6,2.5l0,18.5
	C11.2,39.2,9.6,39.3,7.6,39.3z"/>
<rect x="19.9" y="33.6" transform="matrix(-0.7066 -0.7076 0.7076 -0.7066 16.2962 76.2257)" width="8.2" height="2.3"/>
<rect x="13.6" y="25.4" transform="matrix(6.866017e-04 -1 1 6.866017e-04 2.3915 55.5251)" width="30.7" height="2.3"/>
<polygon fill="#FF6B00" stroke="#FFFFFF" stroke-width="0.75" stroke-miterlimit="10" points="33.4,17.4 18.4,15.9 18.6,13.1 
	33.7,14.7 "/>
<rect x="15.9" y="27" fill="#FF6B00" stroke="#FFFFFF" stroke-width="0.75" stroke-miterlimit="10" width="19.2" height="2.7"/>
<rect x="3.5" y="26.2" transform="matrix(-0.7066 -0.7076 0.7076 -0.7066 -6.3316 51.9723)" width="8.2" height="2.3"/>
<g>
	<path fill="#555656" d="M38,14.5l3.2,0l0-1l1.3,0l0,1l3.9,0l0-1l1.3,0l0,1l3,0l0,1.2l-3,0l0,0.8l-1.3,0l0-0.8l-3.9,0l0,0.9l-1.3,0
		l0-0.9l-3.2,0L38,14.5z M42.7,17.1l0,8.8l-1.2,0l0-0.7l-1.7,0l0,0.9l-1.2,0l0-9L42.7,17.1z M39.8,24.1l1.7,0l0-2.5l-1.7,0
		L39.8,24.1z M39.8,20.5l1.7,0l0-2.3l-1.7,0L39.8,20.5z M43.6,17.5l2.6,0l0-0.8l1.2,0l0,0.8l2.8,0l0,1.1l-2.8,0l0,1l3.4,0l0,1.1
		l-1.4,0l0,0.9l1.6,0l0,1.2l-1.6,0l0,2.3c0,0.5-0.1,0.8-0.3,1c-0.2,0.2-0.6,0.3-1.1,0.3l-1.5,0L46.3,25c0.6,0.1,1.1,0.1,1.4,0.1
		c0.3,0,0.5-0.1,0.5-0.3l0-2.1l-5.2,0l0-1.2l5.2,0l0-0.9l-5,0l0-1.1l3.1,0l0-1l-2.6,0L43.6,17.5z M44.7,22.8
		c0.7,0.5,1.3,1.1,1.8,1.6l-0.9,0.9c-0.4-0.5-1-1.1-1.7-1.7L44.7,22.8z"/>
	<path fill="#555656" d="M52.2,23.1l12.6,0l0,1.4l-12.6,0L52.2,23.1z M53,14.9l11.1,0l0,1.4l-11.1,0L53,14.9z"/>
	<path fill="#555656" d="M68.9,13.5c0.2,0.5,0.4,1,0.6,1.6l2,0l0,1.2l-5.3,0l0-1.2l2.1,0c-0.2-0.5-0.4-1-0.6-1.4L68.9,13.5z
		 M70.9,21.3l0,4.1l-3.1,0l0,1l-1.3,0l0-5.1L70.9,21.3z M66.6,19.2l4.3,0l0,1.1l-4.3,0L66.6,19.2z M66.6,17.1l4.3,0v1.1l-4.3,0V17.1
		z M67.8,24.2l1.8,0l0-1.8l-1.8,0L67.8,24.2z M71.7,19.2l6.1,0l0,0.9c-0.3,1.4-0.9,2.7-1.7,3.7c0.8,0.5,1.8,0.9,3,1.3l-0.8,1.2
		c-1.3-0.5-2.4-1-3.1-1.5c-0.8,0.6-1.8,1.2-3.2,1.6l-0.8-1.2c1.2-0.4,2.1-0.8,2.9-1.3c-0.8-0.8-1.5-1.7-2-2.7l1.2-0.7
		c0.5,1,1.1,1.8,1.9,2.5l0,0c0.6-0.7,1.1-1.6,1.4-2.7l-4.7,0L71.7,19.2z M77.2,13.9l0,3.2c0,0.3,0.2,0.5,0.5,0.5l1.1,0l0,1.2l-1.4,0
		c-0.5,0-0.9-0.1-1.2-0.3c-0.3-0.2-0.4-0.6-0.4-1.1l0-2.4l-2.1,0c0,0.9-0.1,1.6-0.3,2c-0.2,0.6-0.6,1.2-1.3,1.9l-1-0.9
		c0.6-0.6,0.9-1.2,1.1-1.5c0.1-0.3,0.2-1.2,0.2-2.7L77.2,13.9z"/>
	<path fill="#555656" d="M83.1,13.5c0.3,0.5,0.6,1,0.8,1.6l2.3,0l0,1.2l-6,0l0-1.2l2.4,0c-0.2-0.5-0.5-1-0.8-1.4L83.1,13.5z
		 M80.7,19.2l5,0l0,1.1l-5,0L80.7,19.2z M80.7,17.2l5,0l0,1.1l-5,0L80.7,17.2z M82,25.3l0,1l-1.2,0l0-5.1l4.9,0l0,4.8l-1.3,0l0-0.8
		L82,25.3z M84.3,24.2l0-1.8l-2.4,0l0,1.8L84.3,24.2z M86.4,17.5l2.7,0l0-4l1.4,0l0,4l2.7,0l0,1.3l-2.7,0l0,7.6l-1.4,0l0-7.6l-2.7,0
		L86.4,17.5z"/>
	<path fill="#555656" d="M46.1,38.8c0,1-0.4,1.8-1.3,2.3c-0.7,0.4-1.7,0.7-2.8,0.7c-2.1,0-3.4-1-3.9-2.9l1.3-0.5
		c0.4,1.3,1.2,2,2.6,2c0.8,0,1.5-0.1,1.9-0.4c0.4-0.3,0.6-0.7,0.6-1.2c0-0.4-0.4-0.9-1.2-1.2c-0.4-0.2-1-0.4-1.8-0.7
		c-1-0.3-1.7-0.6-2.2-0.9c-0.7-0.5-1-1.1-1-1.9c0-0.9,0.4-1.7,1.1-2.1c0.6-0.4,1.5-0.6,2.5-0.6c1.2,0,2.1,0.3,2.7,0.8
		c0.5,0.4,0.8,0.9,1.1,1.7l-1.3,0.5c-0.2-0.5-0.4-0.9-0.7-1.2c-0.4-0.3-1-0.5-1.8-0.5c-0.8,0-1.3,0.1-1.6,0.3
		c-0.3,0.2-0.5,0.6-0.5,1c0,0.3,0.4,0.6,1.1,0.9c0.2,0.1,0.7,0.3,1.5,0.5c1.1,0.4,1.9,0.7,2.4,1.1C45.7,37.2,46.1,37.9,46.1,38.8z"
		/>
	<path fill="#555656" d="M51.7,35.8l-1.8,0l0,4.1c0,0.2,0,0.3,0.1,0.4c0.1,0.1,0.2,0.2,0.4,0.2l1.3,0l0,1.3l-1.3,0
		c-0.6,0-1.1-0.2-1.4-0.5c-0.3-0.3-0.4-0.8-0.4-1.5l0-4h-1.3l0-1.3h1.3l0-1.9l1.4,0l0,1.9l1.8,0L51.7,35.8z"/>
	<path fill="#555656" d="M59.7,41.7l-1.4,0l0-1c-0.8,0.7-1.5,1.1-2.3,1.1c-1.9,0-2.9-1.1-2.9-3.2l0-4.2l1.4,0l0,4.3
		c0,0.7,0.1,1.2,0.4,1.4c0.2,0.2,0.5,0.3,1,0.3c0.4,0,0.8-0.1,1.2-0.4c0.5-0.3,0.8-0.7,1.1-1.2l0-4.4l1.4,0L59.7,41.7z"/>
	<path fill="#555656" d="M68,41.7l-1.4,0l0-0.8c-0.6,0.6-1.4,0.9-2.3,0.9c-0.9,0-1.6-0.4-2.3-1.1c-0.7-0.7-1-1.7-1-2.8
		c0-1,0.3-1.9,0.9-2.6c0.6-0.7,1.4-1,2.4-1c0.9,0,1.6,0.3,2.2,0.9l0-3.7l1.4,0L68,41.7z M66.5,38.1c0-0.7-0.2-1.3-0.6-1.7
		c-0.4-0.4-0.9-0.6-1.5-0.6c-0.6,0-1,0.2-1.4,0.6c-0.4,0.4-0.6,1-0.6,1.6c0,0.8,0.2,1.4,0.6,1.9c0.4,0.4,0.8,0.7,1.3,0.7
		c0.7,0,1.2-0.2,1.6-0.6C66.3,39.5,66.5,38.9,66.5,38.1z"/>
	<path fill="#555656" d="M71.1,41.7l-1.4,0l0-7.2l1.4,0L71.1,41.7z M71.1,33l-1.4,0l0-1.5l1.4,0L71.1,33z"/>
	<path fill="#555656" d="M80,38.2c0,1.1-0.4,2-1.1,2.7c-0.7,0.6-1.6,1-2.6,1s-1.9-0.3-2.6-1c-0.7-0.7-1.1-1.6-1.1-2.7
		c0-1.1,0.3-2,1-2.7c0.7-0.7,1.6-1.1,2.7-1.1c1.1,0,2,0.4,2.7,1.1C79.6,36.2,80,37.1,80,38.2z M78.4,38.2c0-0.7-0.2-1.3-0.6-1.8
		c-0.4-0.5-1-0.7-1.6-0.7c-0.7,0-1.2,0.2-1.6,0.7c-0.4,0.5-0.6,1.1-0.6,1.8c0,0.7,0.2,1.3,0.7,1.7c0.4,0.4,0.9,0.6,1.6,0.6
		c0.6,0,1.2-0.2,1.6-0.6C78.2,39.4,78.4,38.9,78.4,38.2z"/>
</g>
<circle cx="7.6" cy="3" r="2"/>
<circle cx="29.1" cy="3" r="2"/>
</svg>
